<svg xmlns="http://www.w3.org/2000/svg" viewBox="0 0 284.91 109.75"><defs><style>.cls-1{fill:#282826;}.cls-2{fill:#e91b44;}.cls-3{fill:#df1c44;}.cls-4{fill:#fff;}</style></defs><g id="Capa_2" data-name="Capa 2"><g id="Capa_2-2" data-name="Capa 2"><path class="cls-1" d="M152.14,36c-.82-6.19-7.42-6.94-7.42-6.94h-14v28h4.88V47h8.18a8.63,8.63,0,0,0,6.88-3.3S153,42.18,152.14,36Zm-5.22,2.17A2.86,2.86,0,0,1,144.06,41h-8.49V34.62h8.49a2.85,2.85,0,0,1,2.86,2.85Z"/><polygon class="cls-1" points="169.32 29.05 176.07 29.05 182.19 40.09 188.69 28.47 194.94 28.47 185.07 45.97 185.07 57.09 179.94 57.09 179.94 46.22 169.32 29.05"/><path class="cls-1" d="M163.44,29.05h-1.37l-12.38,28h6l1.13-3h12.12l1.88,3h5.25Zm-3.75,19.17,3-8.13,3.38,8.13Z"/><polygon class="cls-2" points="197.63 28.47 207.29 57.09 212.07 57.09 219.38 34.72 226.5 57.09 231.57 57.09 241.41 28.47 236.35 28.47 229.5 50.94 222 28.47 216.94 28.47 210.19 51.22 203.07 28.47 197.63 28.47"/><path class="cls-2" d="M253.6,28.47h-5.06L235.69,57.09h5.25l2.53-6.15H258.1l2.62,6.15h5.44Zm-8.44,18.15,5.77-12.28,5.39,12.28Z"/><path class="cls-2" d="M259.41,28.47l10.5,18.91v9.71H275V47.66s-.18-9.24,6.75-14.72v4s2-6.8,3.19-8.11h-8s2.9,1.17,2.9,1.78-5.72,4.5-7.08,12.19L264,28.47Z"/><path class="cls-2" d="M132,82.11A1,1,0,0,1,130.85,81V65.12A1,1,0,0,1,132,64a1.46,1.46,0,0,1,1.23.72l6.3,9.48-.48.08,6.36-9.56a1.5,1.5,0,0,1,1.36-.72c.61,0,.91.37.91,1.12V81a1.12,1.12,0,0,1-2.24,0V67.36l.69.24-5.61,8.26a1.56,1.56,0,0,1-1.36.72,1.38,1.38,0,0,1-1.1-.72l-5.61-8.26.67.19V81A1,1,0,0,1,132,82.11Z"/><path class="cls-2" d="M154.33,82.11A1,1,0,0,1,153.21,81V65.12A1,1,0,0,1,154.33,64h9.59a1.12,1.12,0,0,1,0,2.24h-8.47v5.61h5.32a1.12,1.12,0,1,1,0,2.24h-5.32v5.77h8.47a1.13,1.13,0,0,1,0,2.25Z"/><path class="cls-2" d="M181,82.16a1,1,0,0,1-.84.18,1.23,1.23,0,0,1-.68-.55L175.3,74.9h-3.74V81a1.12,1.12,0,1,1-2.24,0V65.12A1,1,0,0,1,170.44,64h6.25a4.54,4.54,0,0,1,5.05,5v.81a5.33,5.33,0,0,1-1,3.38,4.35,4.35,0,0,1-2.86,1.57l3.5,5.84A1,1,0,0,1,181,82.16Zm-9.4-9.51h5.13a2.36,2.36,0,0,0,2.8-2.8V69a2.37,2.37,0,0,0-2.8-2.8h-5.13Z"/><path class="cls-2" d="M191.36,82.11a5.22,5.22,0,0,1-6-6V70a6.23,6.23,0,0,1,1.46-4.55,6,6,0,0,1,4.5-1.43h3.23a6.14,6.14,0,0,1,3.84,1,4.47,4.47,0,0,1,1.53,3.27.94.94,0,0,1-.21.85,1.15,1.15,0,0,1-.86.3c-.67,0-1.07-.38-1.17-1.13a2,2,0,0,0-.85-1.65,4.57,4.57,0,0,0-2.28-.43h-3.23a5.79,5.79,0,0,0-2.22.32A2,2,0,0,0,188,67.72a6,6,0,0,0-.34,2.26v6.14a5.91,5.91,0,0,0,.34,2.25,2,2,0,0,0,1.15,1.15,6,6,0,0,0,2.25.34h3.2a4.57,4.57,0,0,0,2.28-.43,2.05,2.05,0,0,0,.85-1.65,1.11,1.11,0,0,1,1.17-1.12,1.19,1.19,0,0,1,.86.29,1,1,0,0,1,.21.86,4.47,4.47,0,0,1-1.53,3.27,6.14,6.14,0,0,1-3.84,1Z"/><path class="cls-2" d="M205.73,82.11a1,1,0,0,1-.78-.34,1.07,1.07,0,0,1-.34-.78V65.12A1.16,1.16,0,0,1,205.73,64a1.07,1.07,0,0,1,.78.34,1,1,0,0,1,.34.78v6.7h10.9v-6.7A1.14,1.14,0,0,1,218.87,64,1.16,1.16,0,0,1,220,65.12V81a1.07,1.07,0,0,1-.34.78,1,1,0,0,1-.78.34,1.08,1.08,0,0,1-.79-.34,1.1,1.1,0,0,1-.33-.78V74.07h-10.9V81a1.16,1.16,0,0,1-1.12,1.12Z"/><path class="cls-2" d="M224.7,82a1,1,0,0,1-.64-1.47l6.35-15.65a1.32,1.32,0,0,1,1.26-.88h.05a1.23,1.23,0,0,1,1.18.88l6.46,15.65a1,1,0,0,1-.61,1.47,1,1,0,0,1-1.47-.61l-1.44-3.5h-8.32l-1.38,3.5A1,1,0,0,1,224.7,82Zm3.7-6.36h6.52l-3.33-8.09Z"/><path class="cls-2" d="M244.47,82.11A1,1,0,0,1,243.34,81V65.12A1,1,0,0,1,244.47,64a1.52,1.52,0,0,1,1.12.66L256.33,78.5h-.56V65.12a1.12,1.12,0,1,1,2.24,0V81a1,1,0,0,1-1.12,1.12,1.43,1.43,0,0,1-1.12-.67L245,67.6h.56V81A1,1,0,0,1,244.47,82.11Z"/><path class="cls-2" d="M269,82.11a1.18,1.18,0,0,1-.84-.28,1.14,1.14,0,0,1-.28-.84V66.27h-5.18a1.13,1.13,0,1,1,0-2.25H275.3a1.13,1.13,0,1,1,0,2.25h-5.19V81A1,1,0,0,1,269,82.11Z"/><circle class="cls-1" cx="54.88" cy="54.88" r="54.87"/><path class="cls-3" d="M47.88,38.69h7.5L65,60.59l6.25-16.12h2.13l5.24,16.12,9.63-21.9h8.13l-17,40H78L72.12,63.47,65,78.72H63l-8.94-22.5S58.38,44.5,47.88,38.69Z"/><path class="cls-4" d="M51.06,48.16c-1.12-8.44-10.12-9.47-10.12-9.47H21.81V76.94h6.66V63.16H39.62A11.75,11.75,0,0,0,49,58.66S52.19,56.59,51.06,48.16Zm-7.12,3A3.89,3.89,0,0,1,40.05,55H28.47V46.28H40.05a3.89,3.89,0,0,1,3.89,3.89Z"/></g></g></svg>